Patient4_TMGait_0pt7_01_right_01_GRF.mot
version=1
nRows=32
nColumns=19
inDegrees=no
endheader
time	F1x	F1y	F1z	M1x	M1y	M1z	F2x	F2y	F2z	M2x	M2y	M2z	EC1x	EC1y	EC1z	EC2x	EC2y	EC2z
0.55	-15.3072	747.5696	55.4573	-295.729	-61.2182	743.3142	-6.1193	-6.6803	-27.2521	6.041	20.4104	-5.4717	-0.0592	0.0182	-0.0073	-0.0462	0.0165	0.9585
0.56164	-11.011	742.5266	59.0202	-294.9231	-62.3508	737.1767	-4.2751	-3.541	-18.5328	4.4245	13.9151	-2.6898	-0.0592	0.0182	-0.0073	-0.0462	0.0165	0.9585
0.57329	-6.942	737.2307	62.007	-293.7567	-62.9722	730.1346	-2.7271	-0.81634	-11.1114	3.0601	8.4066	-0.2082	-0.0592	0.0182	-0.0073	-0.0462	0.0165	0.9585
0.58493	-3.2812	732.11	64.2202	-292.331	-63.0094	722.6511	-1.5563	1.3113	-5.427	2.0292	4.2069	1.7724	-0.0592	0.0182	-0.0073	-0.0462	0.0165	0.9585
0.59657	-0.080164	727.5394	65.6452	-290.805	-62.4941	715.2154	-0.7644	2.8293	-1.4834	1.3275	1.3217	3.2194	-0.0592	0.0182	-0.0073	-0.0462	0.0165	0.9585
0.60821	2.6872	723.782	66.3934	-289.3312	-61.5407	708.2266	-0.29872	3.8145	0.97531	0.90615	-0.44863	4.1755	-0.0592	0.0182	-0.0073	-0.0462	0.0165	0.9585
0.61986	5.0708	720.993	66.6486	-288.029	-60.3102	701.9598	-0.10004	4.3674	2.2724	0.69359	-1.3451	4.7179	-0.0592	0.0182	-0.0073	-0.0462	0.0165	0.9585
0.6315	7.1661	719.2301	66.6041	-286.9798	-58.9521	696.568	-0.093119	4.5728	2.758	0.61197	-1.631	4.9089	-0.0592	0.0182	-0.0073	-0.0462	0.0165	0.9585
0.64314	9.0662	718.5217	66.4286	-286.2442	-57.5844	692.1331	-0.22624	4.4892	2.7188	0.58613	-1.5176	4.7949	-0.0592	0.0182	-0.0073	-0.0462	0.0165	0.9585
0.65479	10.9134	718.8653	66.2129	-285.8622	-56.2328	688.6548	-0.43548	4.1331	2.3887	0.54773	-1.1839	4.3833	-0.0592	0.0182	-0.0073	-0.0462	0.0165	0.9585
0.66643	12.8626	720.2531	66.0367	-285.8561	-54.8999	686.0983	-0.68618	3.4673	1.9307	0.43179	-0.75103	3.6336	-0.0592	0.0182	-0.0073	-0.0462	0.0165	0.9585
0.67807	15.0766	722.6303	65.9594	-286.2178	-53.5693	684.3662	-0.93011	2.4307	1.4538	0.18466	-0.30529	2.4643	-0.0592	0.0182	-0.0073	-0.0462	0.0165	0.9585
0.68971	17.6705	725.8839	66.0573	-286.9032	-52.2594	683.334	-1.1212	0.95335	1.0198	-0.23604	0.093885	0.78784	-0.0592	0.0182	-0.0073	-0.0462	0.0165	0.9585
0.70136	20.7233	729.8491	66.4019	-287.8389	-51.0006	682.8298	-1.1789	-1.005	0.67468	-0.8518	0.37937	-1.4574	-0.0592	0.0182	-0.0073	-0.0462	0.0165	0.9585
0.713	24.2408	734.297	67.0521	-288.9207	-49.838	682.652	-1.0021	-3.405	0.45484	-1.6505	0.47422	-4.2438	-0.0592	0.0182	-0.0073	-0.0462	0.0165	0.9585
0.72464	28.2016	738.9022	68.0406	-290.0055	-48.8064	682.5265	-0.44895	-6.0786	0.39291	-2.5667	0.28477	-7.3863	-0.0592	0.0182	-0.0073	-0.0462	0.0165	0.9585
0.73629	32.4797	743.1771	69.3336	-290.8926	-47.9151	682.0709	0.64364	-8.6096	0.54467	-3.4435	-0.31828	-10.3975	-0.0592	0.0182	-0.0073	-0.0462	0.0165	0.9585
0.74793	36.8953	746.4811	70.8595	-291.3223	-47.1645	680.7775	2.4422	-10.2407	0.96774	-4.0016	-1.4725	-12.3957	-0.0592	0.0182	-0.0073	-0.0462	0.0165	0.9585
0.75957	41.203	748.1661	72.4964	-291.0385	-46.538	678.1775	5.0852	-9.7746	1.7421	-3.8061	-3.3203	-11.9797	-0.0592	0.0182	-0.0073	-0.0462	0.0165	0.9585
0.77121	45.1956	747.7437	74.0939	-289.8613	-45.9877	673.9169	8.6049	-5.5233	2.9358	-2.2521	-5.9487	-7.1756	-0.0592	0.0182	-0.0073	-0.0462	0.0165	0.9585
0.78286	48.7326	744.9666	75.4628	-287.7201	-45.4129	667.8435	12.8251	4.6751	4.5883	1.4276	-9.3344	4.554	-0.0592	0.0182	-0.0073	-0.0462	0.0165	0.9585
0.7945	51.7994	739.6714	76.4105	-284.5985	-44.673	659.8314	17.2345	23.2647	6.6612	8.0955	-13.2398	26.1033	-0.0592	0.0182	-0.0073	-0.0462	0.0165	0.9585
0.80614	54.4572	731.6287	76.7331	-280.4618	-43.5906	649.6854	20.8339	52.6121	8.9763	18.5778	-17.0847	60.2972	-0.0592	0.0182	-0.0073	-0.0462	0.0165	0.9585
0.81779	56.8319	720.3099	76.2366	-275.164	-41.9663	636.9202	21.9658	94.2831	11.1424	33.4035	-19.8075	109.0391	-0.0592	0.0182	-0.0073	-0.0462	0.0165	0.9585
0.82943	58.9906	704.7205	74.7532	-268.3745	-39.6382	620.6699	18.4303	148.243	12.488	52.5209	-19.8654	172.3959	-0.0592	0.0182	-0.0073	-0.0462	0.0165	0.9585
0.84107	60.853	683.332	72.1694	-259.5496	-36.5416	599.617	8.6766	212.5207	12.3033	75.1703	-15.888	248.1889	-0.0592	0.0182	-0.0073	-0.0462	0.0165	0.9585
0.85271	62.1357	654.327	68.4159	-248.0196	-32.7308	572.2386	-6.7777	282.8224	9.8023	99.7564	-7.1633	331.4119	-0.0592	0.0182	-0.0073	-0.0462	0.0165	0.9585
0.86436	62.4305	616.0675	63.4891	-233.1687	-28.3669	537.1754	-25.0947	352.7724	4.4767	123.989	5.8356	414.3309	-0.0592	0.0182	-0.0073	-0.0462	0.0165	0.9585
0.876	61.2745	567.7277	57.4937	-214.668	-23.7261	493.7624	-43.1741	416.7181	-3.1721	145.8902	21.376	489.8358	-0.0592	0.0182	-0.0073	-0.0462	0.0165	0.9585
0.88764	58.2483	509.8001	50.6573	-192.6668	-19.1593	442.4523	-58.8469	472.2677	-12.2333	164.6523	37.5828	554.7015	-0.0592	0.0182	-0.0073	-0.0462	0.0165	0.9585
0.89929	53.1284	444.1782	43.3621	-167.8311	-15.0699	384.876	-71.1712	520.129	-21.6879	180.5657	52.9461	609.6052	-0.0592	0.0182	-0.0073	-0.0462	0.0165	0.9585
0.91093	45.9487	373.9414	36.0195	-141.2783	-11.7768	323.6747	-79.9021	562.085	-30.6531	194.319	66.3651	656.6595	-0.0592	0.0182	-0.0073	-0.0462	0.0165	0.9585
